<svg width="191" height="191" viewBox="0 0 191 191" fill="none" xmlns="http://www.w3.org/2000/svg">
<path fill-rule="evenodd" clip-rule="evenodd" d="M175.924 8.4748L167.402 16.9958L160.431 13.4348C147.591 6.8748 135.085 6.6988 122.46 12.9008C117.76 15.2088 112.922 19.4118 100.131 32.2978L83.803 48.7478L85.299 51.6008C86.122 53.1688 98.502 66.0408 112.809 80.2028C132.203 99.3998 139.43 105.953 141.208 105.953C142.963 105.953 147.736 101.759 159.267 90.0848C172.435 76.7548 175.451 73.1288 178.126 67.4118C183.852 55.1758 183.223 39.7538 176.546 28.6658L173.224 23.1488L182.092 14.3218C190.868 5.5858 192.092 3.4848 189.76 1.1528C187.17 -1.4372 184.336 0.0618019 175.924 8.4748ZM75.018 86.4408L64.374 96.9298L58.445 90.9378C55.185 87.6428 51.658 84.6748 50.608 84.3408C49.117 83.8678 45.113 87.3098 32.288 100.094C11.19 121.124 9.45999 124.182 9.45999 140.432C9.45999 150.409 9.72499 152.019 12.257 157.426C13.795 160.711 15.695 164.108 16.479 164.974C17.741 166.369 16.877 167.573 8.93199 175.48C0.0649929 184.307 -1.46901 187.124 1.15999 189.753C3.47899 192.072 5.50299 190.873 14.652 181.762C23.368 173.082 23.982 172.663 25.698 174.215C26.697 175.12 30.193 177.086 33.467 178.585C46.282 184.452 62.741 182.445 74.589 173.572C81.423 168.455 105.393 144.318 106.33 141.61C106.805 140.24 105.249 137.986 100.266 132.825L93.564 125.883L104.262 115.152C110.146 109.249 114.96 103.73 114.96 102.887C114.96 100.747 112.938 98.9528 110.526 98.9528C109.279 98.9528 104.418 103.015 97.957 109.456L87.422 119.959L78.96 111.453L70.499 102.948L81.23 92.1838C87.131 86.2638 91.96 80.8968 91.96 80.2578C91.96 78.5778 89.082 75.9528 87.239 75.9528C86.371 75.9528 80.872 80.6728 75.018 86.4408Z" fill="#FFB400"/>
</svg>
