<svg width="32" height="32" viewBox="0 0 32 32" fill="none" xmlns="http://www.w3.org/2000/svg">
<g clip-path="url(#clip0_3_178)">
<path d="M5.70312 13.1729L6.90625 17.5957H6.93359L8.46484 13.1729H7.69238V10.6982H12.1836V13.1729H11.4316L12.9561 17.5957H12.9834L14.2002 13.1729H13.4619V10.6982H17.6182V13.1729H16.9209L13.9746 21.0957H10.7891L9.40137 17.124H9.37402L8 21.0957H4.73926L1.84082 13.1729H1.12305V10.6982H6.46191V13.1729H5.70312ZM30.1826 15.8184C30.1826 17.4727 29.6882 18.751 28.6992 19.6533C27.7148 20.5511 26.318 21 24.5088 21H18.4316V18.5254H19.2451V13.1592H18.4316V10.6982H24.3584C25.3656 10.6982 26.3089 10.8783 27.1885 11.2383C28.0726 11.5938 28.7926 12.1543 29.3486 12.9199C29.9046 13.6855 30.1826 14.6517 30.1826 15.8184ZM23.8525 13.1729H23.2373V18.5254H23.8525C24.4951 18.5254 24.9896 18.3203 25.3359 17.9102C25.6823 17.4954 25.8555 16.8027 25.8555 15.832C25.8555 14.8431 25.6937 14.1527 25.3701 13.7607C25.0465 13.3688 24.5407 13.1729 23.8525 13.1729Z" fill="#FFB400"/>
</g>
<defs>
<clipPath id="clip0_3_178">
<rect width="32" height="32" fill="white"/>
</clipPath>
</defs>
</svg>
