<svg width="306" height="56" viewBox="0 0 306 56" fill="none" xmlns="http://www.w3.org/2000/svg">
<rect width="306" height="56" fill="white"/>
<rect x="156" y="6" width="144" height="44" fill="#FFB400"/>
<path d="M25.125 19.1641L29.25 34.3281H29.3438L34.5938 19.1641H31.9453V10.6797H47.3438V19.1641H44.7656L49.9922 34.3281H50.0859L54.2578 19.1641H51.7266V10.6797H65.9766V19.1641H63.5859L53.4844 46.3281H42.5625L37.8047 32.7109H37.7109L33 46.3281H21.8203L11.8828 19.1641H9.42188V10.6797H27.7266V19.1641H25.125ZM109.055 28.2344C109.055 33.9062 107.359 38.2891 103.969 41.3828C100.594 44.4609 95.8047 46 89.6016 46H68.7656V37.5156H71.5547V19.1172H68.7656V10.6797H89.0859C92.5391 10.6797 95.7734 11.2969 98.7891 12.5312C101.82 13.75 104.289 15.6719 106.195 18.2969C108.102 20.9219 109.055 24.2344 109.055 28.2344ZM87.3516 19.1641H85.2422V37.5156H87.3516C89.5547 37.5156 91.25 36.8125 92.4375 35.4062C93.625 33.9844 94.2188 31.6094 94.2188 28.2812C94.2188 24.8906 93.6641 22.5234 92.5547 21.1797C91.4453 19.8359 89.7109 19.1641 87.3516 19.1641Z" fill="#2A2A2A"/>
<path d="M119.363 34.8672V24.9766H145.988V34.8672H119.363Z" fill="#FFB400"/>
<path d="M188.816 25.6719V20.873H185.793V34.6367H188.148V41H173.172V34.6367H175.51V20.873H172.486V25.6719H167.477V14.5098H193.826V25.6719H188.816ZM215.377 22.9648V20.873H209.365V24.916H214.621V30.3125H209.365V34.6367H215.377V32.5449H222.32V41H197.043V34.6367H199.1V20.873H197.043V14.5098H222.32V22.9648H215.377ZM247.035 16.2676V14.5098H253.398V24.1953H246.824C246.414 22.918 245.816 21.957 245.031 21.3125C244.258 20.6562 243.344 20.3281 242.289 20.3281C240.824 20.3281 239.74 20.9434 239.037 22.1738C238.346 23.3926 238 25.2266 238 27.6758C238 30.2656 238.352 32.1758 239.055 33.4062C239.77 34.625 240.895 35.2344 242.43 35.2344C243.742 35.2344 244.797 34.7539 245.594 33.793C246.391 32.832 246.977 31.332 247.352 29.293L254.242 31.7539C253.422 35.082 251.916 37.5312 249.725 39.1016C247.545 40.6602 244.656 41.4395 241.059 41.4395C237.988 41.4395 235.352 40.8477 233.148 39.6641C230.957 38.4688 229.299 36.8223 228.174 34.7246C227.049 32.6152 226.486 30.207 226.486 27.5C226.486 24.9336 227.055 22.6191 228.191 20.5566C229.328 18.4941 230.893 16.8828 232.885 15.7227C234.877 14.5508 237.086 13.9648 239.512 13.9648C240.977 13.9648 242.359 14.1641 243.66 14.5625C244.973 14.9609 246.098 15.5293 247.035 16.2676ZM269.869 20.873V24.916H275.986V20.873H274.334V14.5098H288.291V20.873H286.252V34.6367H288.291V41H274.334V34.6367H275.986V30.3125H269.869V34.6367H271.557V41H257.582V34.6367H259.604V20.873H257.582V14.5098H271.557V20.873H269.869Z" fill="white"/>
</svg>
