<svg width="122.88" height="122.267" xmlns="http://www.w3.org/2000/svg" xml:space="preserve" enable-background="new 0 0 122.88 122.267" version="1.1">

 <g>
  <title>Layer 1</title>
  <g id="svg_1">
   <path id="svg_2" d="m33.822,50.291c4.137,7.442 8.898,14.604 15.074,21.133c6.204,6.56 13.886,12.538 23.875,17.606l0.01,0.005l0.002,-0.005c0.728,0.371 1.421,0.362 2.072,0.118c0.944,-0.353 1.927,-1.137 2.883,-2.086c0.729,-0.726 1.643,-1.924 2.631,-3.223c3.846,-5.054 8.601,-11.301 15.314,-8.193c0.142,0.065 0.276,0.141 0.402,0.226l22.373,12.852c0.08,0.046 0.157,0.095 0.23,0.147c2.966,2.036 4.177,5.172 4.19,8.683c0.014,3.621 -1.329,7.674 -3.274,11.101c-2.565,4.517 -6.387,7.502 -10.761,9.525c-4.17,1.928 -8.798,2.954 -13.267,3.608c-6.989,1.025 -13.578,0.374 -20.288,-1.692c-6.55,-2.017 -13.176,-5.385 -20.4,-9.86l-0.526,-0.326c-3.326,-2.06 -6.906,-4.276 -10.389,-6.904c-12.865,-9.71 -25.966,-23.723 -34.461,-39.102c-7.151,-12.946 -11.064,-26.909 -8.931,-40.223c1.169,-7.306 4.32,-13.938 9.752,-18.331c4.762,-3.853 11.188,-5.94 19.448,-5.203c0.973,0.084 1.793,0.639 2.255,1.419l0.006,-0.003l14.324,24.27c2.11,2.718 2.344,5.415 1.203,8.096c-0.943,2.218 -2.892,4.251 -5.476,6.168c-0.786,0.65 -1.708,1.325 -2.659,2.021c-3.198,2.341 -6.856,5.018 -5.612,8.173l0,0zm10.848,25.131c-6.604,-6.982 -11.635,-14.542 -15.975,-22.357c-0.076,-0.123 -0.144,-0.253 -0.202,-0.39c-3.174,-7.459 2.52,-11.625 7.493,-15.262c0.845,-0.618 1.663,-1.217 2.401,-1.829l0.002,0.003c0.043,-0.036 0.088,-0.071 0.135,-0.105c1.843,-1.354 3.171,-2.647 3.678,-3.837c0.289,-0.679 0.182,-1.426 -0.466,-2.265c-0.111,-0.129 -0.213,-0.271 -0.303,-0.423l-13.638,-23.105c-5.869,-0.241 -10.419,1.321 -13.784,4.044c-4.239,3.429 -6.723,8.759 -7.674,14.699c-1.905,11.894 1.716,24.594 8.292,36.5c8.078,14.623 20.575,27.977 32.864,37.25c3.379,2.55 6.776,4.653 9.932,6.607l0.526,0.326c6.818,4.223 13.017,7.386 19.052,9.244c5.876,1.809 11.634,2.38 17.729,1.486c4.009,-0.587 8.113,-1.485 11.668,-3.129c3.351,-1.55 6.248,-3.785 8.134,-7.104c1.496,-2.637 2.53,-5.653 2.521,-8.222c-0.006,-1.63 -0.472,-3.029 -1.605,-3.844l-22.25,-12.779c-2.461,-1.081 -5.629,3.081 -8.193,6.45c-1.104,1.452 -2.125,2.792 -3.156,3.817c-1.477,1.466 -3.118,2.723 -4.962,3.411c-2.136,0.799 -4.395,0.834 -6.755,-0.37l0.002,-0.004c-10.614,-5.385 -18.813,-11.777 -25.466,-18.812l0,0z"/>
  </g>
  <path stroke="#000" style="vector-effect: non-scaling-stroke;" d="m33.44,4.13352c-28,3.55556 -28,10.66667 -28,14.22222l0,3.55556l0,7.11111l0,7.11111" id="svg_3" fill="#000000"/>
  <rect transform="rotate(33.1248 99.8588 94.7548)" stroke="#000" id="svg_7" height="21.34597" width="37.17353" y="84.08178" x="81.27203" fill="#000000"/>
  <rect transform="rotate(56.4561 27.395 23.1606)" stroke="#000" id="svg_8" height="21.34597" width="37.17353" y="12.48758" x="8.80827" fill="#000000"/>
  <rect transform="rotate(39.7123 51.453 90.4069)" stroke="#000" id="svg_9" height="21.34597" width="37.17353" y="79.73396" x="32.86624" fill="#000000"/>
  <rect transform="rotate(55.2366 27.395 65.4794)" stroke="#000" id="svg_10" height="21.34597" width="37.17353" y="54.80642" x="8.80827" fill="#000000"/>
  <rect transform="rotate(74.2865 17.54 43.1606)" stroke="#000" id="svg_11" height="21.34597" width="37.17353" y="32.48758" x="-1.0468" fill="#000000"/>
  <rect transform="rotate(26.6028 68.76 102.024)" stroke="#000" id="svg_12" height="23.80999" width="18.89381" y="90.11911" x="59.31308" fill="#000000"/>
  <rect transform="rotate(-0.651975 90.5834 106.059)" stroke="#000" id="svg_13" height="21.34597" width="37.17353" y="95.38613" x="71.99667" fill="#000000"/>
 </g>
</svg>